<svg width="30" height="30" viewBox="0 0 30 30" fill="none" xmlns="http://www.w3.org/2000/svg">
<path fill-rule="evenodd" clip-rule="evenodd" d="M8.62 0.088C10.184 0.016 10.6827 0 14.6667 0C18.6507 0 19.1493 0.0173333 20.712 0.088C22.2747 0.158667 23.3413 0.408 24.2747 0.769333C25.252 1.13867 26.1387 1.716 26.872 2.46267C27.6187 3.19467 28.1947 4.08 28.5627 5.05867C28.9253 5.992 29.1733 7.05867 29.2453 8.61867C29.3173 10.1853 29.3333 10.684 29.3333 14.6667C29.3333 18.6507 29.316 19.1493 29.2453 20.7133C29.1747 22.2733 28.9253 23.34 28.5627 24.2733C28.1947 25.2521 27.6177 26.1389 26.872 26.872C26.1387 27.6187 25.252 28.1947 24.2747 28.5627C23.3413 28.9253 22.2747 29.1733 20.7147 29.2453C19.1493 29.3173 18.6507 29.3333 14.6667 29.3333C10.6827 29.3333 10.184 29.316 8.62 29.2453C7.06 29.1747 5.99333 28.9253 5.06 28.5627C4.08123 28.1946 3.19443 27.6177 2.46133 26.872C1.71517 26.1396 1.13775 25.2532 0.769333 24.2747C0.408 23.3413 0.16 22.2747 0.088 20.7147C0.016 19.148 0 18.6493 0 14.6667C0 10.6827 0.0173333 10.184 0.088 8.62133C0.158667 7.05867 0.408 5.992 0.769333 5.05867C1.1383 4.08011 1.71616 3.19375 2.46267 2.46133C3.19472 1.71533 4.08063 1.13792 5.05867 0.769333C5.992 0.408 7.05867 0.16 8.61867 0.088H8.62ZM20.5933 2.728C19.0467 2.65733 18.5827 2.64267 14.6667 2.64267C10.7507 2.64267 10.2867 2.65733 8.74 2.728C7.30933 2.79333 6.53333 3.032 6.016 3.23333C5.332 3.5 4.84267 3.816 4.32933 4.32933C3.84273 4.80274 3.46824 5.37904 3.23333 6.016C3.032 6.53333 2.79333 7.30933 2.728 8.74C2.65733 10.2867 2.64267 10.7507 2.64267 14.6667C2.64267 18.5827 2.65733 19.0467 2.728 20.5933C2.79333 22.024 3.032 22.8 3.23333 23.3173C3.468 23.9533 3.84267 24.5307 4.32933 25.004C4.80267 25.4907 5.38 25.8653 6.016 26.1C6.53333 26.3013 7.30933 26.54 8.74 26.6053C10.2867 26.676 10.7493 26.6907 14.6667 26.6907C18.584 26.6907 19.0467 26.676 20.5933 26.6053C22.024 26.54 22.8 26.3013 23.3173 26.1C24.0013 25.8333 24.4907 25.5173 25.004 25.004C25.4907 24.5307 25.8653 23.9533 26.1 23.3173C26.3013 22.8 26.54 22.024 26.6053 20.5933C26.676 19.0467 26.6907 18.5827 26.6907 14.6667C26.6907 10.7507 26.676 10.2867 26.6053 8.74C26.54 7.30933 26.3013 6.53333 26.1 6.016C25.8333 5.332 25.5173 4.84267 25.004 4.32933C24.5306 3.84276 23.9543 3.46828 23.3173 3.23333C22.8 3.032 22.024 2.79333 20.5933 2.728ZM12.7933 19.188C13.8395 19.6235 15.0045 19.6823 16.0892 19.3543C17.174 19.0263 18.1112 18.3319 18.7408 17.3897C19.3704 16.4474 19.6534 15.3158 19.5414 14.1881C19.4294 13.0605 18.9293 12.0066 18.1267 11.2067C17.615 10.6953 16.9963 10.3038 16.3151 10.0602C15.6339 9.81664 14.9072 9.72715 14.1873 9.79815C13.4674 9.86916 12.7722 10.0989 12.1517 10.4708C11.5313 10.8428 11.001 11.3477 10.5991 11.9491C10.1971 12.5506 9.93359 13.2337 9.82735 13.9493C9.72112 14.6648 9.77487 15.3951 9.98472 16.0874C10.1946 16.7797 10.5553 17.4168 11.041 17.953C11.5266 18.4891 12.1251 18.9109 12.7933 19.188ZM9.336 9.336C10.036 8.63597 10.8671 8.08067 11.7817 7.70182C12.6964 7.32296 13.6767 7.12797 14.6667 7.12797C15.6567 7.12797 16.637 7.32296 17.5516 7.70181C18.4662 8.08067 19.2973 8.63597 19.9973 9.336C20.6974 10.036 21.2527 10.8671 21.6315 11.7817C22.0104 12.6964 22.2054 13.6767 22.2054 14.6667C22.2054 15.6567 22.0104 16.637 21.6315 17.5516C21.2527 18.4662 20.6974 19.2973 19.9973 19.9973C18.5836 21.4111 16.6661 22.2054 14.6667 22.2054C12.6673 22.2054 10.7498 21.4111 9.336 19.9973C7.92222 18.5836 7.12797 16.6661 7.12797 14.6667C7.12797 12.6673 7.92222 10.7498 9.336 9.336ZM23.8773 8.25067C24.0508 8.08703 24.1897 7.89024 24.2857 7.67197C24.3818 7.45369 24.4331 7.21836 24.4366 6.97991C24.44 6.74146 24.3956 6.50473 24.306 6.28375C24.2163 6.06276 24.0832 5.86201 23.9146 5.69339C23.746 5.52476 23.5452 5.39168 23.3243 5.30202C23.1033 5.21237 22.8665 5.16797 22.6281 5.17144C22.3896 5.17492 22.1543 5.22621 21.936 5.32226C21.7178 5.41832 21.521 5.55719 21.3573 5.73067C21.0391 6.06804 20.8648 6.51616 20.8716 6.97991C20.8784 7.44365 21.0656 7.88651 21.3935 8.21446C21.7215 8.54241 22.1643 8.72964 22.6281 8.7364C23.0918 8.74316 23.54 8.56892 23.8773 8.25067Z" fill="#F8F8F8"/>
</svg>
